<svg width="519" height="480" viewBox="0 0 519 480" fill="none" xmlns="http://www.w3.org/2000/svg">
<rect width="519" height="480" rx="25" fill="white"/>
<path fill-rule="evenodd" clip-rule="evenodd" d="M264.983 140.327L260.217 24L254.071 139.927L235.204 160.11C234.304 161.073 233.936 162.417 234.22 163.704L242.842 202.774L242.846 202.79H123.135V204.075C190.63 204.963 246.197 227.077 257.522 255.986C269.082 226.476 326.741 204.047 396.131 204.047L396.131 202.79H275.835L275.839 202.774L284.461 163.704C284.745 162.417 284.377 161.073 283.477 160.11L264.983 140.327ZM161.93 366.517L162.066 367.064L163.027 366.787L123.689 208.961L122.728 209.237L122.772 209.411L122.325 209.283L82.9875 367.109L83.9485 367.385L84.1598 366.538L84.5144 366.651L121.09 234.56L123.103 358.747L122.96 367.574L123.246 367.58L123.246 367.594L123.629 367.587L123.959 367.593L123.96 367.581L124.246 367.575L124.103 358.747L126.118 234.664L161.524 366.643L161.93 366.517ZM154.135 335.245L123.047 210.518L90.0257 343.003L120.975 231.233L121.037 231.252L121.037 231.243L122.036 231.224L123.603 327.92L125.173 231.224L126.173 231.242L126.173 231.252L126.232 231.234L154.135 335.245ZM60 386.922C62.8622 391.663 66.1971 396.106 69.9718 400.164C84.1688 415.426 103.424 424 123.501 424C143.579 424 162.834 415.426 177.031 400.164C180.806 396.106 184.141 391.663 187.003 386.922H60ZM332.997 386.922C335.859 391.663 339.194 396.106 342.969 400.164C357.166 415.426 376.421 424 396.499 424C416.576 424 435.831 415.426 450.028 400.164C453.803 396.106 457.138 391.663 460 386.922H332.997ZM435.062 367.064L434.926 366.517L434.52 366.643L399.114 234.665L397.1 358.747L397.243 367.575L396.956 367.581L396.956 367.593L396.626 367.587L396.243 367.594L396.243 367.58L395.956 367.574L396.099 358.747L394.087 234.558L357.511 366.651L357.156 366.538L356.945 367.385L355.984 367.109L395.322 209.283L395.768 209.411L395.725 209.237L396.686 208.961L436.023 366.787L435.062 367.064ZM396.044 210.518L427.132 335.245L399.228 231.234L399.17 231.252L399.17 231.242L398.17 231.224L396.6 327.92L395.033 231.224L394.033 231.243L394.033 231.252L393.971 231.233L363.024 342.995L396.044 210.518Z" fill="#15657C"/>
</svg>
